<svg width="16" height="16" viewBox="0 0 16 16" fill="none" xmlns="http://www.w3.org/2000/svg">
<path d="M4.00002 8.00001C4.00002 8.3682 3.70154 8.66668 3.33335 8.66668C2.96516 8.66668 2.66669 8.3682 2.66669 8.00001C2.66669 7.63182 2.96516 7.33334 3.33335 7.33334C3.70154 7.33334 4.00002 7.63182 4.00002 8.00001Z" fill="white"/>
<path d="M8.66669 8.00001C8.66669 8.3682 8.36821 8.66668 8.00002 8.66668C7.63183 8.66668 7.33335 8.3682 7.33335 8.00001C7.33335 7.63182 7.63183 7.33334 8.00002 7.33334C8.36821 7.33334 8.66669 7.63182 8.66669 8.00001Z" fill="white"/>
<path d="M13.3334 8.00001C13.3334 8.3682 13.0349 8.66668 12.6667 8.66668C12.2985 8.66668 12 8.3682 12 8.00001C12 7.63182 12.2985 7.33334 12.6667 7.33334C13.0349 7.33334 13.3334 7.63182 13.3334 8.00001Z" fill="white"/>
<path d="M4.00002 8.00001C4.00002 8.3682 3.70154 8.66668 3.33335 8.66668C2.96516 8.66668 2.66669 8.3682 2.66669 8.00001C2.66669 7.63182 2.96516 7.33334 3.33335 7.33334C3.70154 7.33334 4.00002 7.63182 4.00002 8.00001Z" stroke="white" stroke-linecap="round" stroke-linejoin="round"/>
<path d="M8.66669 8.00001C8.66669 8.3682 8.36821 8.66668 8.00002 8.66668C7.63183 8.66668 7.33335 8.3682 7.33335 8.00001C7.33335 7.63182 7.63183 7.33334 8.00002 7.33334C8.36821 7.33334 8.66669 7.63182 8.66669 8.00001Z" stroke="white" stroke-linecap="round" stroke-linejoin="round"/>
<path d="M13.3334 8.00001C13.3334 8.3682 13.0349 8.66668 12.6667 8.66668C12.2985 8.66668 12 8.3682 12 8.00001C12 7.63182 12.2985 7.33334 12.6667 7.33334C13.0349 7.33334 13.3334 7.63182 13.3334 8.00001Z" stroke="white" stroke-linecap="round" stroke-linejoin="round"/>
</svg>
