<svg width="25" height="24" viewBox="0 0 25 24" fill="none" xmlns="http://www.w3.org/2000/svg">
<path d="M14.33 2.05752V3.2C14.33 4.88016 14.33 5.72024 14.6569 6.36197C14.9446 6.92646 15.4035 7.3854 15.968 7.67302C16.6097 8 17.4498 8 19.13 8L20.2724 8M14.33 2.05752C13.9364 2 13.466 2 12.679 2H10.73C8.48975 2 7.36964 2 6.51399 2.43597C5.76135 2.81947 5.14942 3.43139 4.76593 4.18404C4.32996 5.03968 4.32996 6.15979 4.32996 8.4V10M14.33 2.05752C14.4257 2.07151 14.5168 2.0889 14.6069 2.11052C15.015 2.20851 15.4052 2.37012 15.7631 2.58944C16.1668 2.83681 16.5127 3.18271 17.2045 3.87451L18.4554 5.12548C19.1472 5.81729 19.4931 6.16319 19.7405 6.56686C19.9598 6.92475 20.1214 7.31493 20.2194 7.72307C20.2411 7.81313 20.2584 7.90429 20.2724 8M20.2724 8C20.33 8.39354 20.33 8.864 20.33 9.65097V10M3.32996 21V14H4.82996C6.21067 14 7.32996 15.1193 7.32996 16.5C7.32996 17.8807 6.21067 19 4.82996 19H3.32996M17.33 21V14H21.33M21.33 18H17.33M10.33 14V21H10.83C12.763 21 14.33 19.433 14.33 17.5C14.33 15.567 12.763 14 10.83 14H10.33Z" stroke="#FFF4D5" stroke-width="1.5" stroke-linecap="round" stroke-linejoin="round"/>
</svg>
