<svg width="16" height="17" viewBox="0 0 16 17" fill="none" xmlns="http://www.w3.org/2000/svg">
<path d="M3.99996 8.49999C3.99996 8.86818 3.70148 9.16666 3.33329 9.16666C2.9651 9.16666 2.66663 8.86818 2.66663 8.49999C2.66663 8.13181 2.9651 7.83333 3.33329 7.83333C3.70148 7.83333 3.99996 8.13181 3.99996 8.49999Z" fill="#A3A3A3"/>
<path d="M8.66663 8.49999C8.66663 8.86818 8.36815 9.16666 7.99996 9.16666C7.63177 9.16666 7.33329 8.86818 7.33329 8.49999C7.33329 8.13181 7.63177 7.83333 7.99996 7.83333C8.36815 7.83333 8.66663 8.13181 8.66663 8.49999Z" fill="#A3A3A3"/>
<path d="M13.3333 8.49999C13.3333 8.86818 13.0348 9.16666 12.6666 9.16666C12.2984 9.16666 12 8.86818 12 8.49999C12 8.13181 12.2984 7.83333 12.6666 7.83333C13.0348 7.83333 13.3333 8.13181 13.3333 8.49999Z" fill="#A3A3A3"/>
<path d="M3.99996 8.49999C3.99996 8.86818 3.70148 9.16666 3.33329 9.16666C2.9651 9.16666 2.66663 8.86818 2.66663 8.49999C2.66663 8.13181 2.9651 7.83333 3.33329 7.83333C3.70148 7.83333 3.99996 8.13181 3.99996 8.49999Z" stroke="#A3A3A3" stroke-linecap="round" stroke-linejoin="round"/>
<path d="M8.66663 8.49999C8.66663 8.86818 8.36815 9.16666 7.99996 9.16666C7.63177 9.16666 7.33329 8.86818 7.33329 8.49999C7.33329 8.13181 7.63177 7.83333 7.99996 7.83333C8.36815 7.83333 8.66663 8.13181 8.66663 8.49999Z" stroke="#A3A3A3" stroke-linecap="round" stroke-linejoin="round"/>
<path d="M13.3333 8.49999C13.3333 8.86818 13.0348 9.16666 12.6666 9.16666C12.2984 9.16666 12 8.86818 12 8.49999C12 8.13181 12.2984 7.83333 12.6666 7.83333C13.0348 7.83333 13.3333 8.13181 13.3333 8.49999Z" stroke="#A3A3A3" stroke-linecap="round" stroke-linejoin="round"/>
</svg>
