<svg width="16" height="16" viewBox="0 0 16 16" fill="none" xmlns="http://www.w3.org/2000/svg">
<path d="M5.33329 4.66666H10.6666M5.33329 7.33333H10.6666M5.33329 9.99999H7.99996M13.3333 13.0181L13.3333 5.6C13.3333 4.10652 13.3333 3.35979 13.0426 2.78935C12.787 2.28759 12.379 1.87964 11.8773 1.62398C11.3068 1.33333 10.5601 1.33333 9.06663 1.33333L6.93329 1.33333C5.43982 1.33333 4.69308 1.33333 4.12265 1.62398C3.62089 1.87964 3.21294 2.28759 2.95728 2.78935C2.66663 3.35978 2.66663 4.10652 2.66663 5.59999L2.66663 13.0181C2.66663 13.5204 2.66663 13.7715 2.76059 13.9292C2.8719 14.116 3.06732 14.2368 3.28418 14.2528C3.46725 14.2664 3.69187 14.154 4.14113 13.9294C4.54591 13.727 4.7483 13.6258 4.95981 13.5726C5.21141 13.5093 5.47293 13.4956 5.72978 13.5322C5.94569 13.563 6.15756 13.6424 6.58131 13.8013L6.87637 13.912C7.29216 14.0679 7.50005 14.1459 7.71393 14.1768C7.90363 14.2042 8.09629 14.2042 8.28599 14.1768C8.49987 14.1459 8.70776 14.0679 9.12356 13.912L9.41861 13.8013C9.84236 13.6424 10.0542 13.563 10.2701 13.5322C10.527 13.4956 10.7885 13.5093 11.0401 13.5726C11.2516 13.6258 11.454 13.727 11.8588 13.9294C12.308 14.154 12.5327 14.2664 12.7157 14.2528C12.9326 14.2368 13.128 14.116 13.2393 13.9292C13.3333 13.7715 13.3333 13.5204 13.3333 13.0181Z" stroke="#0C111D" stroke-linecap="round" stroke-linejoin="round"/>
</svg>
