<svg width="16" height="16" viewBox="0 0 16 16" fill="none" xmlns="http://www.w3.org/2000/svg">
<path d="M11.3333 2V6.66667M11.3333 6.66667C10.2287 6.66667 9.33329 7.5621 9.33329 8.66667V9.33333C9.33329 10.4379 10.2287 11.3333 11.3333 11.3333C12.4379 11.3333 13.3333 10.4379 13.3333 9.33333V8.66667C13.3333 7.5621 12.4379 6.66667 11.3333 6.66667ZM4.66663 10.6667L4.66663 14M11.3333 13.3333V14M4.66663 2L4.66663 4M4.66663 4C3.56206 4 2.66663 4.89543 2.66663 6L2.66663 6.66667C2.66663 7.77124 3.56206 8.66667 4.66663 8.66667C5.7712 8.66667 6.66663 7.77124 6.66663 6.66667V6C6.66663 4.89543 5.7712 4 4.66663 4Z" stroke="#282733" stroke-linecap="round" stroke-linejoin="round"/>
</svg>
